# xmcd
#
# Track frame offsets:
#	150
#	20001
#	63560
#	77278
#	103251
#	110976
#	125129
#	140240
#	155243
#	174676
#
# Disc length: 2421 seconds
#
# Revision: 1
# Processed by: cddbd v1.4b42PL1 Copyright (c) Steve Scherf et al.
# Submitted via: audiograbber 1.80
#
DISCID=9b09730a
DTITLE=Vimana - In Search of the Miraculous
DYEAR=1900
DGENRE=
TTITLE0=India
TTITLE1=Jai Sita Rama
TTITLE2=Train to Vrindavan
TTITLE3=Jungle Moon
TTITLE4=Om Namah Shivya
TTITLE5=Mind Walk
TTITLE6=On the Banks of Yamuna
TTITLE7=Like a Glorious River
TTITLE8=Jaya Radha Madhava
TTITLE9=On the Banks of the Yamuna
EXTD=
EXTT0=
EXTT1=
EXTT2=
EXTT3=
EXTT4=
EXTT5=
EXTT6=
EXTT7=
EXTT8=
EXTT9=
PLAYORDER=
